<svg width="16" height="7" viewBox="0 0 16 7" fill="none" xmlns="http://www.w3.org/2000/svg">
<path fill-rule="evenodd" clip-rule="evenodd" d="M15.8533 3.82509C15.9471 3.73131 15.9998 3.60408 15.9998 3.47141C15.9998 3.33874 15.9471 3.21151 15.8533 3.11773L12.879 0.145591C12.6837 -0.0496032 12.3671 -0.0494927 12.1719 0.145838C11.9767 0.341168 11.9769 0.65775 12.1722 0.852944L14.3207 3L0.500183 3C0.224041 3 0.00018313 3.22386 0.000183105 3.5C0.000183081 3.77614 0.224041 4 0.500183 4L14.2635 4L12.1722 6.08988C11.9769 6.28507 11.9767 6.60165 12.1719 6.79698C12.3671 6.99231 12.6837 6.99242 12.879 6.79723L15.8533 3.82509Z" fill="#F6175A"/>
</svg>
