<svg width="16" height="16" viewBox="0 0 16 16" fill="none" xmlns="http://www.w3.org/2000/svg">
<path fill-rule="evenodd" clip-rule="evenodd" d="M0.854286 0.146447C0.659024 -0.0488155 0.342441 -0.0488155 0.147179 0.146447C-0.0480831 0.341709 -0.0480831 0.658291 0.147179 0.853553L7.29331 7.99968L0.153631 15.1394C-0.0416305 15.3346 -0.0416307 15.6512 0.153631 15.8465C0.348894 16.0417 0.665476 16.0417 0.860738 15.8465L8.00041 8.70679L15.1401 15.8465C15.3353 16.0417 15.6519 16.0417 15.8472 15.8465C16.0425 15.6512 16.0425 15.3346 15.8472 15.1394L8.70752 7.99968L15.8536 0.853553C16.0489 0.658291 16.0489 0.341709 15.8536 0.146447C15.6584 -0.0488155 15.3418 -0.0488155 15.1465 0.146447L8.00041 7.29257L0.854286 0.146447Z" fill="#F6175A"/>
</svg>
