<svg width="24" height="24" viewBox="0 0 24 24" fill="none" xmlns="http://www.w3.org/2000/svg">
<path fill-rule="evenodd" clip-rule="evenodd" d="M12 4.94903C8.13405 4.94903 5.00006 8.08303 5.00006 11.949C5.00006 15.815 8.13405 18.949 12 18.949C15.866 18.949 19 15.815 19 11.949C19 8.08303 15.866 4.94903 12 4.94903ZM4 11.949C4 7.53071 7.58174 3.94897 12 3.94897C16.4183 3.94897 20.0001 7.53071 20.0001 11.949C20.0001 16.3673 16.4183 19.949 12 19.949C7.58174 19.949 4 16.3673 4 11.949ZM12 11.012C12.2762 11.012 12.5001 11.2358 12.5001 11.512V11.5186V11.5252V11.5318V11.5383V11.5449V11.5515V11.5581V11.5647V11.5713V11.5779V11.5844V11.591V11.5976V11.6042V11.6108V11.6174V11.624V11.6305V11.6371V11.6437V11.6503V11.6569V11.6635V11.6701V11.6766V11.6832V11.6898V11.6964V11.703V11.7096V11.7162V11.7228V11.7293V11.7359V11.7425V11.7491V11.7557V11.7623V11.7689V11.7754V11.782V11.7886V11.7952V11.8018V11.8084V11.815V11.8216V11.8281V11.8347V11.8413V11.8479V11.8545V11.8611V11.8677V11.8743V11.8808V11.8874V11.894V11.9006V11.9072V11.9138V11.9204V11.927V11.9335V11.9401V11.9467V11.9533V11.9599V11.9665V11.9731V11.9796V11.9862V11.9928V11.9994V12.006V12.0126V12.0192V12.0258V12.0323V12.0389V12.0455V12.0521V12.0587V12.0653V12.0719V12.0785V12.0851V12.0916V12.0982V12.1048V12.1114V12.118V12.1246V12.1312V12.1378V12.1443V12.1509V12.1575V12.1641V12.1707V12.1773V12.1839V12.1905V12.197V12.2036V12.2102V12.2168V12.2234V12.23V12.2366V12.2432V12.2498V12.2563V12.2629V12.2695V12.2761V12.2827V12.2893V12.2959V12.3025V12.309V12.3156V12.3222V12.3288V12.3354V12.342V12.3486V12.3552V12.3618V12.3683V12.3749V12.3815V12.3881V12.3947V12.4013V12.4079V12.4145V12.4211V12.4276V12.4342V12.4408V12.4474V12.454V12.4606V12.4672V12.4738V12.4803V12.4869V12.4935V12.5001V12.5067V12.5133V12.5199V12.5265V12.5331V12.5396V12.5462V12.5528V12.5594V12.566V12.5726V12.5792V12.5858V12.5924V12.599V12.6055V12.6121V12.6187V12.6253V12.6319V12.6385V12.6451V12.6517V12.6583V12.6648V12.6714V12.678V12.6846V12.6912V12.6978V12.7044V12.711V12.7176V12.7241V12.7307V12.7373V12.7439V12.7505V12.7571V12.7637V12.7703V12.7769V12.7835V12.79V12.7966V12.8032V12.8098V12.8164V12.823V12.8296V12.8362V12.8428V12.8493V12.8559V12.8625V12.8691V12.8757V12.8823V12.8889V12.8955V12.9021V12.9087V12.9152V12.9218V12.9284V12.935V12.9416V12.9482V12.9548V12.9614V12.968V12.9746V12.9811V12.9877V12.9943V13.0009V13.0075V13.0141V13.0207V13.0273V13.0339V13.0405V13.047V13.0536V13.0602V13.0668V13.0734V13.08V13.0866V13.0932V13.0998V13.1064V13.1129V13.1195V13.1261V13.1327V13.1393V13.1459V13.1525V13.1591V13.1657V13.1723V13.1788V13.1854V13.192V13.1986V13.2052V13.2118V13.2184V13.225V13.2316V13.2382V13.2448V13.2513V13.2579V13.2645V13.2711V13.2777V13.2843V13.2909V13.2975V13.3041V13.3107V13.3172V13.3238V13.3304V13.337V13.3436V13.3502V13.3568V13.3634V13.37V13.3766V13.3832V13.3897V13.3963V13.4029V13.4095V13.4161V13.4227V13.4293V13.4359V13.4425V13.4491V13.4556V13.4622V13.4688V13.4754V13.482V13.4886V13.4952V13.5018V13.5084V13.515V13.5216V13.5281V13.5347V13.5413V13.5479V13.5545V13.5611V13.5677V13.5743V13.5809V13.5875V13.5941V13.6006V13.6072V13.6138V13.6204V13.627V13.6336V13.6402V13.6468V13.6534V13.66V13.6666V13.6731V13.6797V13.6863V13.6929V13.6995V13.7061V13.7127V13.7193V13.7259V13.7325V13.7391V13.7457V13.7522V13.7588V13.7654V13.772V13.7786V13.7852V13.7918V13.7984V13.805V13.8116V13.8182V13.8247V13.8313V13.8379V13.8445V13.8511V13.8577V13.8643V13.8709V13.8775V13.8841V13.8907V13.8972V13.9038V13.9104V13.917V13.9236V13.9302V13.9368V13.9434V13.95V13.9566V13.9632V13.9698V13.9763V13.9829V13.9895V13.9961V14.0027V14.0093V14.0159V14.0225V14.0291V14.0357V14.0423V14.0489V14.0554V14.062V14.0686V14.0752V14.0818V14.0884V14.095V14.1016V14.1082V14.1148V14.1214V14.1279V14.1345V14.1411V14.1477V14.1543V14.1609V14.1675V14.1741V14.1807V14.1873V14.1939V14.2005V14.207V14.2136V14.2202V14.2268V14.2334V14.24V14.2466V14.2532V14.2598V14.2664V14.273V14.2796V14.2861V14.2927V14.2993V14.3059V14.3125V14.3191V14.3257V14.3323V14.3389V14.3455V14.3521V14.3587V14.3652V14.3718V14.3784V14.385V14.3916V14.3982V14.4048V14.4114V14.418V14.4246V14.4312V14.4378V14.4443V14.4509V14.4575V14.4641V14.4707V14.4773V14.4839V14.4905V14.4971V14.5037V14.5103V14.5169V14.5234V14.53V14.5366V14.5432V14.5498V14.5564V14.563V14.5696V14.5762V14.5828V14.5894V14.596V14.6025V14.6091V14.6157V14.6223V14.6289V14.6355V14.6421V14.6487V14.6553V14.6619V14.6685V14.6751V14.6816V14.6882V14.6948V14.7014V14.708V14.7146V14.7212V14.7278V14.7344V14.741V14.7476V14.7542V14.7607V14.7673V14.7739V14.7805V14.7871V14.7937V14.8003V14.8069V14.8135V14.8201V14.8267V14.8333V14.8399V14.8464V14.853V14.8596V14.8662V14.8728V14.8794V14.886C12.5001 15.1622 12.2762 15.386 12 15.386C11.7239 15.386 11.5 15.1622 11.5 14.886V14.8794V14.8728V14.8662V14.8596V14.853V14.8464V14.8399V14.8333V14.8267V14.8201V14.8135V14.8069V14.8003V14.7937V14.7871V14.7805V14.7739V14.7673V14.7607V14.7542V14.7476V14.741V14.7344V14.7278V14.7212V14.7146V14.708V14.7014V14.6948V14.6882V14.6816V14.6751V14.6685V14.6619V14.6553V14.6487V14.6421V14.6355V14.6289V14.6223V14.6157V14.6091V14.6025V14.596V14.5894V14.5828V14.5762V14.5696V14.563V14.5564V14.5498V14.5432V14.5366V14.53V14.5234V14.5169V14.5103V14.5037V14.4971V14.4905V14.4839V14.4773V14.4707V14.4641V14.4575V14.4509V14.4443V14.4378V14.4312V14.4246V14.418V14.4114V14.4048V14.3982V14.3916V14.385V14.3784V14.3718V14.3652V14.3587V14.3521V14.3455V14.3389V14.3323V14.3257V14.3191V14.3125V14.3059V14.2993V14.2927V14.2861V14.2796V14.273V14.2664V14.2598V14.2532V14.2466V14.24V14.2334V14.2268V14.2202V14.2136V14.207V14.2005V14.1939V14.1873V14.1807V14.1741V14.1675V14.1609V14.1543V14.1477V14.1411V14.1345V14.1279V14.1214V14.1148V14.1082V14.1016V14.095V14.0884V14.0818V14.0752V14.0686V14.062V14.0554V14.0489V14.0423V14.0357V14.0291V14.0225V14.0159V14.0093V14.0027V13.9961V13.9895V13.9829V13.9763V13.9698V13.9632V13.9566V13.95V13.9434V13.9368V13.9302V13.9236V13.917V13.9104V13.9038V13.8972V13.8907V13.8841V13.8775V13.8709V13.8643V13.8577V13.8511V13.8445V13.8379V13.8313V13.8247V13.8182V13.8116V13.805V13.7984V13.7918V13.7852V13.7786V13.772V13.7654V13.7588V13.7522V13.7457V13.7391V13.7325V13.7259V13.7193V13.7127V13.7061V13.6995V13.6929V13.6863V13.6797V13.6731V13.6666V13.66V13.6534V13.6468V13.6402V13.6336V13.627V13.6204V13.6138V13.6072V13.6006V13.5941V13.5875V13.5809V13.5743V13.5677V13.5611V13.5545V13.5479V13.5413V13.5347V13.5281V13.5216V13.515V13.5084V13.5018V13.4952V13.4886V13.482V13.4754V13.4688V13.4622V13.4556V13.4491V13.4425V13.4359V13.4293V13.4227V13.4161V13.4095V13.4029V13.3963V13.3897V13.3832V13.3766V13.37V13.3634V13.3568V13.3502V13.3436V13.337V13.3304V13.3238V13.3172V13.3107V13.3041V13.2975V13.2909V13.2843V13.2777V13.2711V13.2645V13.2579V13.2513V13.2448V13.2382V13.2316V13.225V13.2184V13.2118V13.2052V13.1986V13.192V13.1854V13.1788V13.1723V13.1657V13.1591V13.1525V13.1459V13.1393V13.1327V13.1261V13.1195V13.1129V13.1064V13.0998V13.0932V13.0866V13.08V13.0734V13.0668V13.0602V13.0536V13.047V13.0405V13.0339V13.0273V13.0207V13.0141V13.0075V13.0009V12.9943V12.9877V12.9811V12.9746V12.968V12.9614V12.9548V12.9482V12.9416V12.935V12.9284V12.9218V12.9152V12.9087V12.9021V12.8955V12.8889V12.8823V12.8757V12.8691V12.8625V12.8559V12.8493V12.8428V12.8362V12.8296V12.823V12.8164V12.8098V12.8032V12.7966V12.79V12.7835V12.7769V12.7703V12.7637V12.7571V12.7505V12.7439V12.7373V12.7307V12.7241V12.7176V12.711V12.7044V12.6978V12.6912V12.6846V12.678V12.6714V12.6648V12.6583V12.6517V12.6451V12.6385V12.6319V12.6253V12.6187V12.6121V12.6055V12.599V12.5924V12.5858V12.5792V12.5726V12.566V12.5594V12.5528V12.5462V12.5396V12.5331V12.5265V12.5199V12.5133V12.5067V12.5001V12.4935V12.4869V12.4803V12.4738V12.4672V12.4606V12.454V12.4474V12.4408V12.4342V12.4276V12.4211V12.4145V12.4079V12.4013V12.3947V12.3881V12.3815V12.3749V12.3683V12.3618V12.3552V12.3486V12.342V12.3354V12.3288V12.3222V12.3156V12.309V12.3025V12.2959V12.2893V12.2827V12.2761V12.2695V12.2629V12.2563V12.2498V12.2432V12.2366V12.23V12.2234V12.2168V12.2102V12.2036V12.197V12.1905V12.1839V12.1773V12.1707V12.1641V12.1575V12.1509V12.1443V12.1378V12.1312V12.1246V12.118V12.1114V12.1048V12.0982V12.0916V12.0851V12.0785V12.0719V12.0653V12.0587V12.0521V12.0455V12.0389V12.0323V12.0258V12.0192V12.0126V12.006V11.9994V11.9928V11.9862V11.9796V11.9731V11.9665V11.9599V11.9533V11.9467V11.9401V11.9335V11.927V11.9204V11.9138V11.9072V11.9006V11.894V11.8874V11.8808V11.8743V11.8677V11.8611V11.8545V11.8479V11.8413V11.8347V11.8281V11.8216V11.815V11.8084V11.8018V11.7952V11.7886V11.782V11.7754V11.7689V11.7623V11.7557V11.7491V11.7425V11.7359V11.7293V11.7228V11.7162V11.7096V11.703V11.6964V11.6898V11.6832V11.6766V11.6701V11.6635V11.6569V11.6503V11.6437V11.6371V11.6305V11.624V11.6174V11.6108V11.6042V11.5976V11.591V11.5844V11.5779V11.5713V11.5647V11.5581V11.5515V11.5449V11.5383V11.5318V11.5252V11.5186V11.512C11.5 11.2358 11.7239 11.012 12 11.012ZM12.5001 8.449C12.5001 8.17285 12.2762 7.94897 12 7.94897C11.7239 7.94897 11.5 8.17285 11.5 8.449V8.45096V8.45292V8.45488V8.45683V8.45879V8.46075V8.4627V8.46466V8.46662V8.46857V8.47053V8.47249V8.47444V8.4764V8.47836V8.48031V8.48227V8.48423V8.48618V8.48814V8.4901V8.49205V8.49401V8.49597V8.49792V8.49988V8.50184V8.50379V8.50575V8.50771V8.50966V8.51162V8.51357V8.51553V8.51749V8.51944V8.5214V8.52336V8.52531V8.52727V8.52922V8.53118V8.53314V8.53509V8.53705V8.539V8.54096V8.54292V8.54487V8.54683V8.54878V8.55074V8.5527V8.55465V8.55661V8.55856V8.56052V8.56248V8.56443V8.56639V8.56834V8.5703V8.57225V8.57421V8.57617V8.57812V8.58008V8.58203V8.58399V8.58594V8.5879V8.58985V8.59181V8.59377V8.59572V8.59768V8.59963V8.60159V8.60354V8.6055V8.60745V8.60941V8.61136V8.61332V8.61527V8.61723V8.61918V8.62114V8.6231V8.62505V8.62701V8.62896V8.63092V8.63287V8.63483V8.63678V8.63874V8.64069V8.64265V8.6446V8.64656V8.64851V8.65047V8.65242V8.65438V8.65633V8.65829V8.66024V8.66219V8.66415V8.6661V8.66806V8.67001V8.67197V8.67392V8.67588V8.67783V8.67979V8.68174V8.6837V8.68565V8.68761V8.68956V8.69151V8.69347V8.69542V8.69738V8.69933V8.70129V8.70324V8.7052V8.70715V8.70911V8.71106V8.71301V8.71497V8.71692V8.71888V8.72083V8.72278V8.72474V8.72669V8.72865V8.7306V8.73256V8.73451V8.73646V8.73842V8.74037V8.74233V8.74428V8.74624V8.74819V8.75014V8.7521V8.75405V8.75601V8.75796V8.75991V8.76187V8.76382V8.76578V8.76773V8.76968V8.77164V8.77359V8.77554V8.7775V8.77945V8.78141V8.78336V8.78531V8.78727V8.78922V8.79117V8.79313V8.79508V8.79704V8.79899V8.80094V8.8029V8.80485V8.8068V8.80876V8.81071V8.81266V8.81462V8.81657V8.81853V8.82048V8.82243V8.82439V8.82634V8.82829V8.83025V8.8322V8.83415V8.83611V8.83806V8.84001V8.84197V8.84392V8.84587V8.84783V8.84978V8.85173V8.85369V8.85564V8.85759V8.85955V8.8615V8.86345V8.86541V8.86736V8.86931V8.87126V8.87322V8.87517V8.87712V8.87908V8.88103V8.88298V8.88494V8.88689V8.88884V8.8908V8.89275V8.8947V8.89665V8.89861V8.90056V8.90251V8.90447V8.90642V8.90837V8.91032V8.91228V8.91423V8.91618V8.91814V8.92009V8.92204V8.92399V8.92595V8.9279V8.92985V8.93181V8.93376V8.93571V8.93766V8.93962V8.94157V8.94352V8.94547V8.94743V8.94938V8.95133V8.95328V8.95524V8.95719V8.95914V8.9611V8.96305V8.965V8.96695V8.96891V8.97086V8.97281V8.97476V8.97672V8.97867V8.98062V8.98257V8.98453V8.98648V8.98843V8.99038V8.99233V8.99429V8.99624V8.99819V9.00014V9.0021V9.00405V9.006V9.00795V9.00991V9.01186V9.01381V9.01576V9.01772V9.01967V9.02162V9.02357V9.02552V9.02748V9.02943V9.03138V9.03333V9.03528V9.03724V9.03919V9.04114V9.04309V9.04505V9.047V9.04895V9.0509V9.05285V9.05481V9.05676V9.05871V9.06066V9.06261V9.06457V9.06652V9.06847V9.07042V9.07237V9.07433V9.07628V9.07823V9.08018V9.08213V9.08409V9.08604V9.08799V9.08994V9.09189V9.09385V9.0958V9.09775V9.0997V9.10165V9.10361V9.10556V9.10751V9.10946V9.11141V9.11337V9.11532V9.11727V9.11922V9.12117V9.12312V9.12508V9.12703V9.12898V9.13093V9.13288V9.13483V9.13679V9.13874V9.14069V9.14264V9.14459V9.14655V9.1485V9.15045V9.1524V9.15435V9.1563V9.15826V9.16021V9.16216V9.16411V9.16606V9.16801V9.16997V9.17192V9.17387V9.17582V9.17777V9.17972V9.18167V9.18363V9.18558V9.18753V9.18948V9.19143V9.19338V9.19534V9.19729V9.19924V9.20119V9.20314V9.20509V9.20705V9.209V9.21095V9.2129V9.21485V9.2168V9.21875V9.22071V9.22266V9.22461V9.22656V9.22851V9.23046V9.23241V9.23437V9.23632V9.23827V9.24022V9.24217V9.24412V9.24607V9.24803V9.24998V9.25193V9.25388V9.25583V9.25778V9.25973V9.26169V9.26364V9.26559V9.26754V9.26949V9.27144V9.27339V9.27535V9.2773V9.27925V9.2812V9.28315V9.2851V9.28705V9.289V9.29096V9.29291V9.29486V9.29681V9.29876V9.30071V9.30266V9.30462V9.30657V9.30852V9.31047V9.31242V9.31437V9.31632V9.31827V9.32023V9.32218V9.32413V9.32608V9.32803V9.32998V9.33193V9.33388V9.33584V9.33779V9.33974V9.34169V9.34364V9.34559V9.34754V9.34949V9.35145V9.3534V9.35535V9.3573V9.35925V9.3612V9.36315V9.3651V9.36705V9.36901V9.37096V9.37291V9.37486V9.37681V9.37876V9.38071V9.38266V9.38462V9.38657V9.38852V9.39047V9.39242V9.39437V9.39632V9.39827V9.40023V9.40218V9.40413V9.40608V9.40803V9.40998V9.41193V9.41388V9.41583V9.41779V9.41974V9.42169V9.42364V9.42559V9.42754V9.42949V9.43144V9.4334V9.43535V9.4373V9.43925V9.4412V9.44315V9.4451V9.44705V9.449C11.5 9.72516 11.7239 9.94903 12 9.94903C12.2762 9.94903 12.5001 9.72516 12.5001 9.449V9.44705V9.4451V9.44315V9.4412V9.43925V9.4373V9.43535V9.4334V9.43144V9.42949V9.42754V9.42559V9.42364V9.42169V9.41974V9.41779V9.41583V9.41388V9.41193V9.40998V9.40803V9.40608V9.40413V9.40218V9.40023V9.39827V9.39632V9.39437V9.39242V9.39047V9.38852V9.38657V9.38462V9.38266V9.38071V9.37876V9.37681V9.37486V9.37291V9.37096V9.36901V9.36705V9.3651V9.36315V9.3612V9.35925V9.3573V9.35535V9.3534V9.35145V9.34949V9.34754V9.34559V9.34364V9.34169V9.33974V9.33779V9.33584V9.33388V9.33193V9.32998V9.32803V9.32608V9.32413V9.32218V9.32023V9.31827V9.31632V9.31437V9.31242V9.31047V9.30852V9.30657V9.30462V9.30266V9.30071V9.29876V9.29681V9.29486V9.29291V9.29096V9.289V9.28705V9.2851V9.28315V9.2812V9.27925V9.2773V9.27535V9.27339V9.27144V9.26949V9.26754V9.26559V9.26364V9.26169V9.25973V9.25778V9.25583V9.25388V9.25193V9.24998V9.24803V9.24607V9.24412V9.24217V9.24022V9.23827V9.23632V9.23437V9.23241V9.23046V9.22851V9.22656V9.22461V9.22266V9.22071V9.21875V9.2168V9.21485V9.2129V9.21095V9.209V9.20705V9.20509V9.20314V9.20119V9.19924V9.19729V9.19534V9.19338V9.19143V9.18948V9.18753V9.18558V9.18363V9.18167V9.17972V9.17777V9.17582V9.17387V9.17192V9.16997V9.16801V9.16606V9.16411V9.16216V9.16021V9.15826V9.1563V9.15435V9.1524V9.15045V9.1485V9.14655V9.14459V9.14264V9.14069V9.13874V9.13679V9.13483V9.13288V9.13093V9.12898V9.12703V9.12508V9.12312V9.12117V9.11922V9.11727V9.11532V9.11337V9.11141V9.10946V9.10751V9.10556V9.10361V9.10165V9.0997V9.09775V9.0958V9.09385V9.09189V9.08994V9.08799V9.08604V9.08409V9.08213V9.08018V9.07823V9.07628V9.07433V9.07237V9.07042V9.06847V9.06652V9.06457V9.06261V9.06066V9.05871V9.05676V9.05481V9.05285V9.0509V9.04895V9.047V9.04505V9.04309V9.04114V9.03919V9.03724V9.03528V9.03333V9.03138V9.02943V9.02748V9.02552V9.02357V9.02162V9.01967V9.01772V9.01576V9.01381V9.01186V9.00991V9.00795V9.006V9.00405V9.0021V9.00014V8.99819V8.99624V8.99429V8.99233V8.99038V8.98843V8.98648V8.98453V8.98257V8.98062V8.97867V8.97672V8.97476V8.97281V8.97086V8.96891V8.96695V8.965V8.96305V8.9611V8.95914V8.95719V8.95524V8.95328V8.95133V8.94938V8.94743V8.94547V8.94352V8.94157V8.93962V8.93766V8.93571V8.93376V8.93181V8.92985V8.9279V8.92595V8.92399V8.92204V8.92009V8.91814V8.91618V8.91423V8.91228V8.91032V8.90837V8.90642V8.90447V8.90251V8.90056V8.89861V8.89665V8.8947V8.89275V8.8908V8.88884V8.88689V8.88494V8.88298V8.88103V8.87908V8.87712V8.87517V8.87322V8.87126V8.86931V8.86736V8.86541V8.86345V8.8615V8.85955V8.85759V8.85564V8.85369V8.85173V8.84978V8.84783V8.84587V8.84392V8.84197V8.84001V8.83806V8.83611V8.83415V8.8322V8.83025V8.82829V8.82634V8.82439V8.82243V8.82048V8.81853V8.81657V8.81462V8.81266V8.81071V8.80876V8.8068V8.80485V8.8029V8.80094V8.79899V8.79704V8.79508V8.79313V8.79117V8.78922V8.78727V8.78531V8.78336V8.78141V8.77945V8.7775V8.77554V8.77359V8.77164V8.76968V8.76773V8.76578V8.76382V8.76187V8.75991V8.75796V8.75601V8.75405V8.7521V8.75014V8.74819V8.74624V8.74428V8.74233V8.74037V8.73842V8.73646V8.73451V8.73256V8.7306V8.72865V8.72669V8.72474V8.72278V8.72083V8.71888V8.71692V8.71497V8.71301V8.71106V8.70911V8.70715V8.7052V8.70324V8.70129V8.69933V8.69738V8.69542V8.69347V8.69151V8.68956V8.68761V8.68565V8.6837V8.68174V8.67979V8.67783V8.67588V8.67392V8.67197V8.67001V8.66806V8.6661V8.66415V8.66219V8.66024V8.65829V8.65633V8.65438V8.65242V8.65047V8.64851V8.64656V8.6446V8.64265V8.64069V8.63874V8.63678V8.63483V8.63287V8.63092V8.62896V8.62701V8.62505V8.6231V8.62114V8.61918V8.61723V8.61527V8.61332V8.61136V8.60941V8.60745V8.6055V8.60354V8.60159V8.59963V8.59768V8.59572V8.59377V8.59181V8.58985V8.5879V8.58594V8.58399V8.58203V8.58008V8.57812V8.57617V8.57421V8.57225V8.5703V8.56834V8.56639V8.56443V8.56248V8.56052V8.55856V8.55661V8.55465V8.5527V8.55074V8.54878V8.54683V8.54487V8.54292V8.54096V8.539V8.53705V8.53509V8.53314V8.53118V8.52922V8.52727V8.52531V8.52336V8.5214V8.51944V8.51749V8.51553V8.51357V8.51162V8.50966V8.50771V8.50575V8.50379V8.50184V8.49988V8.49792V8.49597V8.49401V8.49205V8.4901V8.48814V8.48618V8.48423V8.48227V8.48031V8.47836V8.4764V8.47444V8.47249V8.47053V8.46857V8.46662V8.46466V8.4627V8.46075V8.45879V8.45683V8.45488V8.45292V8.45096V8.449Z" fill="#B8B8B8"/>
</svg>
