<svg width="24" height="24" viewBox="0 0 24 24" fill="none" xmlns="http://www.w3.org/2000/svg">
<path fill-rule="evenodd" clip-rule="evenodd" d="M15.0278 8C15.0278 9.65685 13.6847 11 12.0278 11C10.371 11 9.02783 9.65685 9.02783 8C9.02783 6.34315 10.371 5 12.0278 5C13.6847 5 15.0278 6.34315 15.0278 8ZM16.0278 8C16.0278 10.2091 14.237 12 12.0278 12C9.81869 12 8.02783 10.2091 8.02783 8C8.02783 5.79086 9.81869 4 12.0278 4C14.237 4 16.0278 5.79086 16.0278 8ZM10.9788 14.022H13.0206C15.4751 14.022 16.9354 14.7754 17.787 15.6771C18.6559 16.5973 19 17.787 19 18.8329C19 18.9171 18.9734 18.9731 18.9537 19H5.04635C5.02668 18.9731 5 18.9171 5 18.8329C5 17.8046 5.36587 16.6117 6.2565 15.6825C7.12983 14.7714 8.59638 14.022 10.9788 14.022ZM10.9788 13.022H13.0206C18.3638 13.022 20 16.3345 20 18.8329C20 19.4775 19.5523 20 19 20H5C4.44772 20 4 19.4775 4 18.8329C4 16.3345 5.76593 13.022 10.9788 13.022Z" fill="#F6175A"/>
</svg>
