<svg width="24" height="24" viewBox="0 0 24 24" fill="none" xmlns="http://www.w3.org/2000/svg">
<path fill-rule="evenodd" clip-rule="evenodd" d="M5.747 6.97906C5.3369 6.97906 5.00003 7.31645 5.00003 7.72503V9.979C6.10117 9.97902 7.00003 10.8779 7.00003 11.979C7.00003 13.0802 6.10117 13.979 5.00003 13.9791V16.232C5.00003 16.6419 5.33716 16.979 5.747 16.979H18.253C18.6628 16.979 19 16.6419 19 16.232V13.9791C17.8988 13.979 17 13.0802 17 11.979C17 10.8779 17.8988 9.97902 19 9.979V7.72503C19 7.31645 18.6631 6.97906 18.253 6.97906H5.747ZM3.99997 7.72503C3.99997 6.76361 4.7851 5.979 5.747 5.979H18.253C19.2149 5.979 20 6.76361 20 7.72503V10.479V10.9791H19.5H19C18.4512 10.9791 18 11.4302 18 11.979C18 12.5279 18.4512 12.979 19 12.979H19.5H20V13.479V16.232C20 17.1942 19.2152 17.9791 18.253 17.9791H5.747C4.78484 17.9791 3.99997 17.1942 3.99997 16.232V13.479V12.979H4.5H5C5.54884 12.979 5.99997 12.5279 5.99997 11.979C5.99997 11.4302 5.54884 10.9791 5 10.9791H4.5H3.99997V10.479V7.72503ZM7.99997 9.47903C7.99997 9.20287 8.22384 8.979 8.5 8.979H8.51172H8.52344H8.53516H8.54687H8.55859H8.57031H8.58203H8.59375H8.60547H8.61719H8.62891H8.64062H8.65234H8.66406H8.67578H8.6875H8.69922H8.71094H8.72266H8.73437H8.74609H8.75781H8.76953H8.78125H8.79297H8.80469H8.81641H8.82812H8.83984H8.85156H8.86328H8.875H8.88672H8.89844H8.91016H8.92187H8.93359H8.94531H8.95703H8.96875H8.98047H8.99219H9.00391H9.01562H9.02734H9.03906H9.05078H9.0625H9.07422H9.08594H9.09766H9.10937H9.12109H9.13281H9.14453H9.15625H9.16797H9.17969H9.19141H9.20312H9.21484H9.22656H9.23828H9.25H9.26172H9.27344H9.28516H9.29687H9.30859H9.32031H9.33203H9.34375H9.35547H9.36719H9.37891H9.39062H9.40234H9.41406H9.42578H9.4375H9.44922H9.46094H9.47266H9.48437H9.49609H9.50781H9.51953H9.53125H9.54297H9.55469H9.56641H9.57812H9.58984H9.60156H9.61328H9.625H9.63672H9.64844H9.66016H9.67187H9.68359H9.69531H9.70703H9.71875H9.73047H9.74219H9.75391H9.76562H9.77734H9.78906H9.80078H9.8125H9.82422H9.83594H9.84766H9.85937H9.87109H9.88281H9.89453H9.90625H9.91797H9.92969H9.94141H9.95312H9.96484H9.97656H9.98828H10H10.0117H10.0234H10.0352H10.0469H10.0586H10.0703H10.082H10.0937H10.1055H10.1172H10.1289H10.1406H10.1523H10.1641H10.1758H10.1875H10.1992H10.2109H10.2227H10.2344H10.2461H10.2578H10.2695H10.2812H10.293H10.3047H10.3164H10.3281H10.3398H10.3516H10.3633H10.375H10.3867H10.3984H10.4102H10.4219H10.4336H10.4453H10.457H10.4687H10.4805H10.4922H10.5039H10.5156H10.5273H10.5391H10.5508H10.5625H10.5742H10.5859H10.5977H10.6094H10.6211H10.6328H10.6445H10.6562H10.668H10.6797H10.6914H10.7031H10.7148H10.7266H10.7383H10.75H10.7617H10.7734H10.7852H10.7969H10.8086H10.8203H10.832H10.8437H10.8555H10.8672H10.8789H10.8906H10.9023H10.9141H10.9258H10.9375H10.9492H10.9609H10.9727H10.9844H10.9961H11.0078H11.0195H11.0312H11.043H11.0547H11.0664H11.0781H11.0898H11.1016H11.1133H11.125H11.1367H11.1484H11.1602H11.1719H11.1836H11.1953H11.207H11.2188H11.2305H11.2422H11.2539H11.2656H11.2773H11.2891H11.3008H11.3125H11.3242H11.3359H11.3477H11.3594H11.3711H11.3828H11.3945H11.4062H11.418H11.4297H11.4414H11.4531H11.4648H11.4766H11.4883H11.5H11.5117H11.5234H11.5352H11.5469H11.5586H11.5703H11.582H11.5938H11.6055H11.6172H11.6289H11.6406H11.6523H11.6641H11.6758H11.6875H11.6992H11.7109H11.7227H11.7344H11.7461H11.7578H11.7695H11.7812H11.793H11.8047H11.8164H11.8281H11.8398H11.8516H11.8633H11.875H11.8867H11.8984H11.9102H11.9219H11.9336H11.9453H11.957H11.9688H11.9805H11.9922H12.0039H12.0156H12.0273H12.0391H12.0508H12.0625H12.0742H12.0859H12.0977H12.1094H12.1211H12.1328H12.1445H12.1562H12.168H12.1797H12.1914H12.2031H12.2148H12.2266H12.2383H12.25H12.2617H12.2734H12.2852H12.2969H12.3086H12.3203H12.332H12.3438H12.3555H12.3672H12.3789H12.3906H12.4023H12.4141H12.4258H12.4375H12.4492H12.4609H12.4727H12.4844H12.4961H12.5078H12.5195H12.5312H12.543H12.5547H12.5664H12.5781H12.5898H12.6016H12.6133H12.625H12.6367H12.6484H12.6602H12.6719H12.6836H12.6953H12.707H12.7188H12.7305H12.7422H12.7539H12.7656H12.7773H12.7891H12.8008H12.8125H12.8242H12.8359H12.8477H12.8594H12.8711H12.8828H12.8945H12.9062H12.918H12.9297H12.9414H12.9531H12.9648H12.9766H12.9883H13H13.0117H13.0234H13.0352H13.0469H13.0586H13.0703H13.082H13.0938H13.1055H13.1172H13.1289H13.1406H13.1523H13.1641H13.1758H13.1875H13.1992H13.2109H13.2227H13.2344H13.2461H13.2578H13.2695H13.2812H13.293H13.3047H13.3164H13.3281H13.3398H13.3516H13.3633H13.375H13.3867H13.3984H13.4102H13.4219H13.4336H13.4453H13.457H13.4688H13.4805H13.4922H13.5039H13.5156H13.5273H13.5391H13.5508H13.5625H13.5742H13.5859H13.5977H13.6094H13.6211H13.6328H13.6445H13.6562H13.668H13.6797H13.6914H13.7031H13.7148H13.7266H13.7383H13.75H13.7617H13.7734H13.7852H13.7969H13.8086H13.8203H13.832H13.8438H13.8555H13.8672H13.8789H13.8906H13.9023H13.9141H13.9258H13.9375H13.9492H13.9609H13.9727H13.9844H13.9961H14.0078H14.0195H14.0312H14.043H14.0547H14.0664H14.0781H14.0898H14.1016H14.1133H14.125H14.1367H14.1484H14.1602H14.1719H14.1836H14.1953H14.207H14.2188H14.2305H14.2422H14.2539H14.2656H14.2773H14.2891H14.3008H14.3125H14.3242H14.3359H14.3477H14.3594H14.3711H14.3828H14.3945H14.4062H14.418H14.4297H14.4414H14.4531H14.4648H14.4766H14.4883H14.5C14.7762 8.979 15 9.20287 15 9.47903C15 9.75519 14.7762 9.97906 14.5 9.97906H14.4883H14.4766H14.4648H14.4531H14.4414H14.4297H14.418H14.4062H14.3945H14.3828H14.3711H14.3594H14.3477H14.3359H14.3242H14.3125H14.3008H14.2891H14.2773H14.2656H14.2539H14.2422H14.2305H14.2188H14.207H14.1953H14.1836H14.1719H14.1602H14.1484H14.1367H14.125H14.1133H14.1016H14.0898H14.0781H14.0664H14.0547H14.043H14.0312H14.0195H14.0078H13.9961H13.9844H13.9727H13.9609H13.9492H13.9375H13.9258H13.9141H13.9023H13.8906H13.8789H13.8672H13.8555H13.8438H13.832H13.8203H13.8086H13.7969H13.7852H13.7734H13.7617H13.75H13.7383H13.7266H13.7148H13.7031H13.6914H13.6797H13.668H13.6562H13.6445H13.6328H13.6211H13.6094H13.5977H13.5859H13.5742H13.5625H13.5508H13.5391H13.5273H13.5156H13.5039H13.4922H13.4805H13.4688H13.457H13.4453H13.4336H13.4219H13.4102H13.3984H13.3867H13.375H13.3633H13.3516H13.3398H13.3281H13.3164H13.3047H13.293H13.2812H13.2695H13.2578H13.2461H13.2344H13.2227H13.2109H13.1992H13.1875H13.1758H13.1641H13.1523H13.1406H13.1289H13.1172H13.1055H13.0938H13.082H13.0703H13.0586H13.0469H13.0352H13.0234H13.0117H13H12.9883H12.9766H12.9648H12.9531H12.9414H12.9297H12.918H12.9062H12.8945H12.8828H12.8711H12.8594H12.8477H12.8359H12.8242H12.8125H12.8008H12.7891H12.7773H12.7656H12.7539H12.7422H12.7305H12.7188H12.707H12.6953H12.6836H12.6719H12.6602H12.6484H12.6367H12.625H12.6133H12.6016H12.5898H12.5781H12.5664H12.5547H12.543H12.5312H12.5195H12.5078H12.4961H12.4844H12.4727H12.4609H12.4492H12.4375H12.4258H12.4141H12.4023H12.3906H12.3789H12.3672H12.3555H12.3438H12.332H12.3203H12.3086H12.2969H12.2852H12.2734H12.2617H12.25H12.2383H12.2266H12.2148H12.2031H12.1914H12.1797H12.168H12.1562H12.1445H12.1328H12.1211H12.1094H12.0977H12.0859H12.0742H12.0625H12.0508H12.0391H12.0273H12.0156H12.0039H11.9922H11.9805H11.9688H11.957H11.9453H11.9336H11.9219H11.9102H11.8984H11.8867H11.875H11.8633H11.8516H11.8398H11.8281H11.8164H11.8047H11.793H11.7812H11.7695H11.7578H11.7461H11.7344H11.7227H11.7109H11.6992H11.6875H11.6758H11.6641H11.6523H11.6406H11.6289H11.6172H11.6055H11.5938H11.582H11.5703H11.5586H11.5469H11.5352H11.5234H11.5117H11.5H11.4883H11.4766H11.4648H11.4531H11.4414H11.4297H11.418H11.4062H11.3945H11.3828H11.3711H11.3594H11.3477H11.3359H11.3242H11.3125H11.3008H11.2891H11.2773H11.2656H11.2539H11.2422H11.2305H11.2188H11.207H11.1953H11.1836H11.1719H11.1602H11.1484H11.1367H11.125H11.1133H11.1016H11.0898H11.0781H11.0664H11.0547H11.043H11.0312H11.0195H11.0078H10.9961H10.9844H10.9727H10.9609H10.9492H10.9375H10.9258H10.9141H10.9023H10.8906H10.8789H10.8672H10.8555H10.8437H10.832H10.8203H10.8086H10.7969H10.7852H10.7734H10.7617H10.75H10.7383H10.7266H10.7148H10.7031H10.6914H10.6797H10.668H10.6562H10.6445H10.6328H10.6211H10.6094H10.5977H10.5859H10.5742H10.5625H10.5508H10.5391H10.5273H10.5156H10.5039H10.4922H10.4805H10.4687H10.457H10.4453H10.4336H10.4219H10.4102H10.3984H10.3867H10.375H10.3633H10.3516H10.3398H10.3281H10.3164H10.3047H10.293H10.2812H10.2695H10.2578H10.2461H10.2344H10.2227H10.2109H10.1992H10.1875H10.1758H10.1641H10.1523H10.1406H10.1289H10.1172H10.1055H10.0937H10.082H10.0703H10.0586H10.0469H10.0352H10.0234H10.0117H10H9.98828H9.97656H9.96484H9.95312H9.94141H9.92969H9.91797H9.90625H9.89453H9.88281H9.87109H9.85937H9.84766H9.83594H9.82422H9.8125H9.80078H9.78906H9.77734H9.76562H9.75391H9.74219H9.73047H9.71875H9.70703H9.69531H9.68359H9.67187H9.66016H9.64844H9.63672H9.625H9.61328H9.60156H9.58984H9.57812H9.56641H9.55469H9.54297H9.53125H9.51953H9.50781H9.49609H9.48437H9.47266H9.46094H9.44922H9.4375H9.42578H9.41406H9.40234H9.39062H9.37891H9.36719H9.35547H9.34375H9.33203H9.32031H9.30859H9.29687H9.28516H9.27344H9.26172H9.25H9.23828H9.22656H9.21484H9.20312H9.19141H9.17969H9.16797H9.15625H9.14453H9.13281H9.12109H9.10937H9.09766H9.08594H9.07422H9.0625H9.05078H9.03906H9.02734H9.01562H9.00391H8.99219H8.98047H8.96875H8.95703H8.94531H8.93359H8.92187H8.91016H8.89844H8.88672H8.875H8.86328H8.85156H8.83984H8.82812H8.81641H8.80469H8.79297H8.78125H8.76953H8.75781H8.74609H8.73437H8.72266H8.71094H8.69922H8.6875H8.67578H8.66406H8.65234H8.64062H8.62891H8.61719H8.60547H8.59375H8.58203H8.57031H8.55859H8.54687H8.53516H8.52344H8.51172H8.5C8.22384 9.97906 7.99997 9.75519 7.99997 9.47903ZM8.5 11.979C8.22384 11.979 7.99997 12.2029 7.99997 12.479C7.99997 12.7552 8.22384 12.9791 8.5 12.9791H8.50586H8.51172H8.51758H8.52344H8.5293H8.53516H8.54102H8.54687H8.55273H8.55859H8.56445H8.57031H8.57617H8.58203H8.58789H8.59375H8.59961H8.60547H8.61133H8.61719H8.62305H8.62891H8.63477H8.64062H8.64648H8.65234H8.6582H8.66406H8.66992H8.67578H8.68164H8.6875H8.69336H8.69922H8.70508H8.71094H8.7168H8.72266H8.72852H8.73437H8.74023H8.74609H8.75195H8.75781H8.76367H8.76953H8.77539H8.78125H8.78711H8.79297H8.79883H8.80469H8.81055H8.81641H8.82227H8.82812H8.83398H8.83984H8.8457H8.85156H8.85742H8.86328H8.86914H8.875H8.88086H8.88672H8.89258H8.89844H8.9043H8.91016H8.91602H8.92187H8.92773H8.93359H8.93945H8.94531H8.95117H8.95703H8.96289H8.96875H8.97461H8.98047H8.98633H8.99219H8.99805H9.00391H9.00977H9.01562H9.02148H9.02734H9.0332H9.03906H9.04492H9.05078H9.05664H9.0625H9.06836H9.07422H9.08008H9.08594H9.0918H9.09766H9.10352H9.10937H9.11523H9.12109H9.12695H9.13281H9.13867H9.14453H9.15039H9.15625H9.16211H9.16797H9.17383H9.17969H9.18555H9.19141H9.19727H9.20312H9.20898H9.21484H9.2207H9.22656H9.23242H9.23828H9.24414H9.25H9.25586H9.26172H9.26758H9.27344H9.2793H9.28516H9.29102H9.29687H9.30273H9.30859H9.31445H9.32031H9.32617H9.33203H9.33789H9.34375H9.34961H9.35547H9.36133H9.36719H9.37305H9.37891H9.38477H9.39062H9.39648H9.40234H9.4082H9.41406H9.41992H9.42578H9.43164H9.4375H9.44336H9.44922H9.45508H9.46094H9.4668H9.47266H9.47852H9.48437H9.49023H9.49609H9.50195H9.50781H9.51367H9.51953H9.52539H9.53125H9.53711H9.54297H9.54883H9.55469H9.56055H9.56641H9.57227H9.57812H9.58398H9.58984H9.5957H9.60156H9.60742H9.61328H9.61914H9.625H9.63086H9.63672H9.64258H9.64844H9.6543H9.66016H9.66602H9.67187H9.67773H9.68359H9.68945H9.69531H9.70117H9.70703H9.71289H9.71875H9.72461H9.73047H9.73633H9.74219H9.74805H9.75391H9.75977H9.76562H9.77148H9.77734H9.7832H9.78906H9.79492H9.80078H9.80664H9.8125H9.81836H9.82422H9.83008H9.83594H9.8418H9.84766H9.85352H9.85937H9.86523H9.87109H9.87695H9.88281H9.88867H9.89453H9.90039H9.90625H9.91211H9.91797H9.92383H9.92969H9.93555H9.94141H9.94727H9.95312H9.95898H9.96484H9.9707H9.97656H9.98242H9.98828H9.99414H10H10.0059H10.0117H10.0176H10.0234H10.0293H10.0352H10.041H10.0469H10.0527H10.0586H10.0645H10.0703H10.0762H10.082H10.0879H10.0937H10.0996H10.1055H10.1113H10.1172H10.123H10.1289H10.1348H10.1406H10.1465H10.1523H10.1582H10.1641H10.1699H10.1758H10.1816H10.1875H10.1934H10.1992H10.2051H10.2109H10.2168H10.2227H10.2285H10.2344H10.2402H10.2461H10.252H10.2578H10.2637H10.2695H10.2754H10.2812H10.2871H10.293H10.2988H10.3047H10.3105H10.3164H10.3223H10.3281H10.334H10.3398H10.3457H10.3516H10.3574H10.3633H10.3691H10.375H10.3809H10.3867H10.3926H10.3984H10.4043H10.4102H10.416H10.4219H10.4277H10.4336H10.4395H10.4453H10.4512H10.457H10.4629H10.4687H10.4746H10.4805H10.4863H10.4922H10.498H10.5039H10.5098H10.5156H10.5215H10.5273H10.5332H10.5391H10.5449H10.5508H10.5566H10.5625H10.5684H10.5742H10.5801H10.5859H10.5918H10.5977H10.6035H10.6094H10.6152H10.6211H10.627H10.6328H10.6387H10.6445H10.6504H10.6562H10.6621H10.668H10.6738H10.6797H10.6855H10.6914H10.6973H10.7031H10.709H10.7148H10.7207H10.7266H10.7324H10.7383H10.7441H10.75H10.7559H10.7617H10.7676H10.7734H10.7793H10.7852H10.791H10.7969H10.8027H10.8086H10.8145H10.8203H10.8262H10.832H10.8379H10.8437H10.8496H10.8555H10.8613H10.8672H10.873H10.8789H10.8848H10.8906H10.8965H10.9023H10.9082H10.9141H10.9199H10.9258H10.9316H10.9375H10.9434H10.9492H10.9551H10.9609H10.9668H10.9727H10.9785H10.9844H10.9902H10.9961H11.002H11.0078H11.0137H11.0195H11.0254H11.0312H11.0371H11.043H11.0488H11.0547H11.0605H11.0664H11.0723H11.0781H11.084H11.0898H11.0957H11.1016H11.1074H11.1133H11.1191H11.125H11.1309H11.1367H11.1426H11.1484H11.1543H11.1602H11.166H11.1719H11.1777H11.1836H11.1895H11.1953H11.2012H11.207H11.2129H11.2188H11.2246H11.2305H11.2363H11.2422H11.248H11.2539H11.2598H11.2656H11.2715H11.2773H11.2832H11.2891H11.2949H11.3008H11.3066H11.3125H11.3184H11.3242H11.3301H11.3359H11.3418H11.3477H11.3535H11.3594H11.3652H11.3711H11.377H11.3828H11.3887H11.3945H11.4004H11.4062H11.4121H11.418H11.4238H11.4297H11.4355H11.4414H11.4473H11.4531H11.459H11.4648H11.4707H11.4766H11.4824H11.4883H11.4941H11.5C11.7762 12.9791 12 12.7552 12 12.479C12 12.2029 11.7762 11.979 11.5 11.979H11.4941H11.4883H11.4824H11.4766H11.4707H11.4648H11.459H11.4531H11.4473H11.4414H11.4355H11.4297H11.4238H11.418H11.4121H11.4062H11.4004H11.3945H11.3887H11.3828H11.377H11.3711H11.3652H11.3594H11.3535H11.3477H11.3418H11.3359H11.3301H11.3242H11.3184H11.3125H11.3066H11.3008H11.2949H11.2891H11.2832H11.2773H11.2715H11.2656H11.2598H11.2539H11.248H11.2422H11.2363H11.2305H11.2246H11.2188H11.2129H11.207H11.2012H11.1953H11.1895H11.1836H11.1777H11.1719H11.166H11.1602H11.1543H11.1484H11.1426H11.1367H11.1309H11.125H11.1191H11.1133H11.1074H11.1016H11.0957H11.0898H11.084H11.0781H11.0723H11.0664H11.0605H11.0547H11.0488H11.043H11.0371H11.0312H11.0254H11.0195H11.0137H11.0078H11.002H10.9961H10.9902H10.9844H10.9785H10.9727H10.9668H10.9609H10.9551H10.9492H10.9434H10.9375H10.9316H10.9258H10.9199H10.9141H10.9082H10.9023H10.8965H10.8906H10.8848H10.8789H10.873H10.8672H10.8613H10.8555H10.8496H10.8437H10.8379H10.832H10.8262H10.8203H10.8145H10.8086H10.8027H10.7969H10.791H10.7852H10.7793H10.7734H10.7676H10.7617H10.7559H10.75H10.7441H10.7383H10.7324H10.7266H10.7207H10.7148H10.709H10.7031H10.6973H10.6914H10.6855H10.6797H10.6738H10.668H10.6621H10.6562H10.6504H10.6445H10.6387H10.6328H10.627H10.6211H10.6152H10.6094H10.6035H10.5977H10.5918H10.5859H10.5801H10.5742H10.5684H10.5625H10.5566H10.5508H10.5449H10.5391H10.5332H10.5273H10.5215H10.5156H10.5098H10.5039H10.498H10.4922H10.4863H10.4805H10.4746H10.4687H10.4629H10.457H10.4512H10.4453H10.4395H10.4336H10.4277H10.4219H10.416H10.4102H10.4043H10.3984H10.3926H10.3867H10.3809H10.375H10.3691H10.3633H10.3574H10.3516H10.3457H10.3398H10.334H10.3281H10.3223H10.3164H10.3105H10.3047H10.2988H10.293H10.2871H10.2812H10.2754H10.2695H10.2637H10.2578H10.252H10.2461H10.2402H10.2344H10.2285H10.2227H10.2168H10.2109H10.2051H10.1992H10.1934H10.1875H10.1816H10.1758H10.1699H10.1641H10.1582H10.1523H10.1465H10.1406H10.1348H10.1289H10.123H10.1172H10.1113H10.1055H10.0996H10.0937H10.0879H10.082H10.0762H10.0703H10.0645H10.0586H10.0527H10.0469H10.041H10.0352H10.0293H10.0234H10.0176H10.0117H10.0059H10H9.99414H9.98828H9.98242H9.97656H9.9707H9.96484H9.95898H9.95312H9.94727H9.94141H9.93555H9.92969H9.92383H9.91797H9.91211H9.90625H9.90039H9.89453H9.88867H9.88281H9.87695H9.87109H9.86523H9.85937H9.85352H9.84766H9.8418H9.83594H9.83008H9.82422H9.81836H9.8125H9.80664H9.80078H9.79492H9.78906H9.7832H9.77734H9.77148H9.76562H9.75977H9.75391H9.74805H9.74219H9.73633H9.73047H9.72461H9.71875H9.71289H9.70703H9.70117H9.69531H9.68945H9.68359H9.67773H9.67187H9.66602H9.66016H9.6543H9.64844H9.64258H9.63672H9.63086H9.625H9.61914H9.61328H9.60742H9.60156H9.5957H9.58984H9.58398H9.57812H9.57227H9.56641H9.56055H9.55469H9.54883H9.54297H9.53711H9.53125H9.52539H9.51953H9.51367H9.50781H9.50195H9.49609H9.49023H9.48437H9.47852H9.47266H9.4668H9.46094H9.45508H9.44922H9.44336H9.4375H9.43164H9.42578H9.41992H9.41406H9.4082H9.40234H9.39648H9.39062H9.38477H9.37891H9.37305H9.36719H9.36133H9.35547H9.34961H9.34375H9.33789H9.33203H9.32617H9.32031H9.31445H9.30859H9.30273H9.29687H9.29102H9.28516H9.2793H9.27344H9.26758H9.26172H9.25586H9.25H9.24414H9.23828H9.23242H9.22656H9.2207H9.21484H9.20898H9.20312H9.19727H9.19141H9.18555H9.17969H9.17383H9.16797H9.16211H9.15625H9.15039H9.14453H9.13867H9.13281H9.12695H9.12109H9.11523H9.10937H9.10352H9.09766H9.0918H9.08594H9.08008H9.07422H9.06836H9.0625H9.05664H9.05078H9.04492H9.03906H9.0332H9.02734H9.02148H9.01562H9.00977H9.00391H8.99805H8.99219H8.98633H8.98047H8.97461H8.96875H8.96289H8.95703H8.95117H8.94531H8.93945H8.93359H8.92773H8.92187H8.91602H8.91016H8.9043H8.89844H8.89258H8.88672H8.88086H8.875H8.86914H8.86328H8.85742H8.85156H8.8457H8.83984H8.83398H8.82812H8.82227H8.81641H8.81055H8.80469H8.79883H8.79297H8.78711H8.78125H8.77539H8.76953H8.76367H8.75781H8.75195H8.74609H8.74023H8.73437H8.72852H8.72266H8.7168H8.71094H8.70508H8.69922H8.69336H8.6875H8.68164H8.67578H8.66992H8.66406H8.6582H8.65234H8.64648H8.64062H8.63477H8.62891H8.62305H8.61719H8.61133H8.60547H8.59961H8.59375H8.58789H8.58203H8.57617H8.57031H8.56445H8.55859H8.55273H8.54687H8.54102H8.53516H8.5293H8.52344H8.51758H8.51172H8.50586H8.5Z" fill="#F6175A"/>
</svg>
