<svg width="24" height="24" viewBox="0 0 24 24" fill="none" xmlns="http://www.w3.org/2000/svg">
<path fill-rule="evenodd" clip-rule="evenodd" d="M5.00003 11C5.00003 7.68634 7.68631 5.00006 11 5.00006C14.3137 5.00006 17 7.68634 17 11C17 12.6977 16.2949 14.2307 15.1616 15.3221C15.1554 15.3278 15.1493 15.3336 15.1433 15.3396C15.1425 15.3404 15.1417 15.3412 15.1409 15.342C14.0641 16.3692 12.6057 17 11 17C7.68631 17 5.00003 14.3137 5.00003 11ZM15.4778 16.3808C14.2642 17.3918 12.7031 18.0001 11 18.0001C7.13399 18.0001 3.99997 14.866 3.99997 11C3.99997 7.13402 7.13399 4 11 4C14.866 4 18 7.13402 18 11C18 12.8029 17.3184 14.4466 16.1989 15.6875C16.7337 16.2221 17.2684 16.7568 17.8031 17.2914L17.8035 17.2919C18.4542 17.9425 19.1047 18.593 19.7554 19.2433C19.9508 19.4385 19.9509 19.7551 19.7557 19.9505C19.5605 20.1458 19.2439 20.1459 19.0486 19.9507C18.3987 19.3014 17.7491 18.6518 17.0996 18.0023L17.0959 17.9986L17.0956 17.9982L17.0919 17.9945C16.5538 17.4565 16.0159 16.9186 15.4778 16.3808Z" fill="#F6175A"/>
</svg>
