<svg width="24" height="24" viewBox="0 0 24 24" fill="none" xmlns="http://www.w3.org/2000/svg">
<path fill-rule="evenodd" clip-rule="evenodd" d="M12.095 4.99304C8.27124 4.99304 5.17203 8.09308 5.17203 11.917C5.17203 13.2035 5.52229 14.4057 6.13222 15.4368C6.25628 15.6465 6.29654 15.9039 6.22644 16.1504L5.59067 18.3866L7.83137 17.7637C8.07802 17.6951 8.33476 17.7367 8.54362 17.8616C9.58204 18.4827 10.7966 18.841 12.095 18.841C15.9198 18.841 19.019 15.7409 19.019 11.917C19.019 8.09313 15.9198 4.99304 12.095 4.99304ZM4.17197 11.917C4.17197 7.54094 7.71875 3.99298 12.095 3.99298C16.4722 3.99298 20.019 7.5409 20.019 11.917C20.019 16.2931 16.4722 19.841 12.095 19.841C10.6228 19.841 9.2426 19.4378 8.06064 18.738L5.68676 19.3978C5.00973 19.586 4.38781 18.9605 4.57998 18.2846L5.25354 15.9155C4.56606 14.7414 4.17197 13.375 4.17197 11.917ZM11.9832 9.51862C11.6378 9.51862 11.3128 9.70085 11.1466 9.91113L11.146 9.9118C11.0068 10.0872 10.9965 10.245 10.9965 10.571C10.9965 10.8472 10.7726 11.071 10.4965 11.071C10.2203 11.071 9.99643 10.8472 9.99643 10.571L9.99642 10.5461C9.99615 10.228 9.99576 9.75279 10.3624 9.29053C10.7101 8.85098 11.3191 8.51856 11.9832 8.51856C12.6212 8.51856 13.3315 8.83186 13.6893 9.33539L13.6894 9.33554C14.0464 9.83842 14.0299 10.3654 13.9815 10.7494L13.9814 10.7509C13.9312 11.1403 13.825 11.5459 13.5535 11.9317L13.5525 11.9332C13.4219 12.1173 13.2616 12.2845 13.1243 12.4219C13.0803 12.4658 13.0397 12.5059 13.002 12.5431L13.0019 12.5431C12.9107 12.6331 12.8362 12.7065 12.7723 12.7786L12.7715 12.7795C12.6622 12.9023 12.5907 12.9831 12.5397 13.0513C12.5081 13.0936 12.4968 13.1153 12.4939 13.121C12.4812 13.1788 12.4815 13.2003 12.4825 13.2905C12.4828 13.3224 12.4833 13.3631 12.4833 13.417C12.4833 13.6931 12.2594 13.917 11.9832 13.917C11.7071 13.917 11.4832 13.6931 11.4832 13.417C11.4832 13.3937 11.4828 13.3697 11.4824 13.3447L11.4824 13.3447C11.4803 13.2228 11.4778 13.0786 11.5211 12.8888L11.5217 12.8862C11.5635 12.7078 11.6567 12.5623 11.7385 12.4528C11.8173 12.3472 11.9166 12.2358 12.0117 12.129L12.0238 12.1154L12.398 12.447L12.0245 12.1145L12.0241 12.115C12.1122 12.0156 12.2231 11.9064 12.3233 11.8077L12.3233 11.8076L12.3234 11.8075L12.3234 11.8075C12.3562 11.7753 12.3877 11.7441 12.417 11.7149C12.5485 11.5833 12.6576 11.4662 12.7362 11.3555C12.8808 11.1497 12.9512 10.9198 12.9894 10.6239C13.0275 10.3203 13.0109 10.1075 12.874 9.9146C12.7359 9.72014 12.3569 9.51862 11.9832 9.51862ZM12.519 15C12.519 14.7238 12.2951 14.5 12.019 14.5C11.7428 14.5 11.519 14.7238 11.519 15V15.002V15.0039V15.0059V15.0078V15.0097V15.0116V15.0135V15.0154V15.0173V15.0191V15.021V15.0228V15.0246V15.0264V15.0282V15.03V15.0318V15.0336V15.0354V15.0371V15.0388V15.0406V15.0423V15.044V15.0457V15.0474V15.0491V15.0507V15.0524V15.054V15.0557V15.0573V15.0589V15.0605V15.0621V15.0637V15.0653V15.0668V15.0684V15.0699V15.0715V15.073V15.0745V15.076V15.0775V15.079V15.0805V15.0819V15.0834V15.0848V15.0863V15.0877V15.0891V15.0906V15.092V15.0933V15.0947V15.0961V15.0975V15.0988V15.1002V15.1015V15.1028V15.1042V15.1055V15.1068V15.1081V15.1094V15.1107V15.1119V15.1132V15.1144V15.1157V15.1169V15.1181V15.1194V15.1206V15.1218V15.123V15.1242V15.1253V15.1265V15.1277V15.1288V15.13V15.1311V15.1323V15.1334V15.1345V15.1356V15.1367V15.1378V15.1389V15.14V15.1411V15.1421V15.1432V15.1442V15.1453V15.1463V15.1473V15.1484V15.1494V15.1504V15.1514V15.1524V15.1534V15.1544V15.1553V15.1563V15.1573V15.1582V15.1592V15.1601V15.161V15.162V15.1629V15.1638V15.1647V15.1656V15.1665V15.1674V15.1683V15.1692V15.17V15.1709V15.1718V15.1726V15.1735V15.1743V15.1752V15.176V15.1768V15.1776V15.1785V15.1793V15.1801V15.1809V15.1817V15.1825V15.1832V15.184V15.1848V15.1856V15.1863V15.1871V15.1878V15.1886V15.1893V15.1901V15.1908V15.1915V15.1922V15.193V15.1937V15.1944V15.1951V15.1958V15.1965V15.1972V15.1979V15.1985V15.1992V15.1999V15.2006V15.2012V15.2019V15.2026V15.2032V15.2039V15.2045V15.2052V15.2058V15.2064V15.2071V15.2077V15.2083V15.2089V15.2095V15.2102V15.2108V15.2114V15.212V15.2126V15.2132V15.2138V15.2144V15.2149V15.2155V15.2161V15.2167V15.2173V15.2178V15.2184V15.219V15.2195V15.2201V15.2207V15.2212V15.2218V15.2223V15.2229V15.2234V15.224V15.2245V15.225V15.2256V15.2261V15.2266V15.2272V15.2277V15.2282V15.2287V15.2293V15.2298V15.2303V15.2308V15.2313V15.2318V15.2324V15.2329V15.2334V15.2339V15.2344V15.2349V15.2354V15.2359V15.2364V15.2369V15.2374V15.2379V15.2384V15.2389V15.2393V15.2398V15.2403V15.2408V15.2413V15.2418V15.2423V15.2428V15.2433V15.2437V15.2442V15.2447V15.2452V15.2457V15.2462V15.2466V15.2471V15.2476V15.2481V15.2486V15.249V15.2495V15.25V15.2505V15.251V15.2514V15.2519V15.2524V15.2529V15.2534V15.2538V15.2543V15.2548V15.2553V15.2558V15.2563V15.2567V15.2572V15.2577V15.2582V15.2587V15.2592V15.2597V15.2602V15.2607V15.2611V15.2616V15.2621V15.2626V15.2631V15.2636V15.2641V15.2646V15.2651V15.2656V15.2661V15.2666V15.2671V15.2676V15.2682V15.2687V15.2692V15.2697V15.2702V15.2707V15.2713V15.2718V15.2723V15.2728V15.2734V15.2739V15.2744V15.275V15.2755V15.276V15.2766V15.2771V15.2777V15.2782V15.2788V15.2793V15.2799V15.2805V15.281V15.2816V15.2822V15.2827V15.2833V15.2839V15.2845V15.2851V15.2856V15.2862V15.2868V15.2874V15.288V15.2886V15.2892V15.2898V15.2905V15.2911V15.2917V15.2923V15.2929V15.2936V15.2942V15.2948V15.2955V15.2961V15.2968V15.2974V15.2981V15.2988V15.2994V15.3001V15.3008V15.3015V15.3021V15.3028V15.3035V15.3042V15.3049V15.3056V15.3063V15.307V15.3078V15.3085V15.3092V15.3099V15.3107V15.3114V15.3122V15.3129V15.3137V15.3144V15.3152V15.316V15.3168V15.3175V15.3183V15.3191V15.3199V15.3207V15.3215V15.3224V15.3232V15.324V15.3248V15.3257V15.3265V15.3274V15.3282V15.3291V15.33V15.3308V15.3317V15.3326V15.3335V15.3344V15.3353V15.3362V15.3371V15.338V15.339V15.3399V15.3408V15.3418V15.3427V15.3437V15.3447V15.3456V15.3466V15.3476V15.3486V15.3496V15.3506V15.3516V15.3527V15.3537V15.3547V15.3558V15.3568V15.3579V15.3589V15.36V15.3611V15.3622V15.3633V15.3644V15.3655V15.3666V15.3677V15.3689V15.37V15.3712V15.3723V15.3735V15.3747V15.3758V15.377V15.3782V15.3794V15.3806V15.3819V15.3831V15.3843V15.3856V15.3868V15.3881V15.3893V15.3906V15.3919V15.3932V15.3945V15.3958V15.3972V15.3985V15.3998V15.4012V15.4025V15.4039V15.4053V15.4067V15.408V15.4094V15.4109V15.4123V15.4137V15.4152V15.4166V15.4181V15.4195V15.421V15.4225V15.424V15.4255V15.427V15.4285V15.4301V15.4316V15.4332V15.4347V15.4363V15.4379V15.4395V15.4411V15.4427V15.4443V15.446V15.4476V15.4493V15.4509V15.4526V15.4543V15.456V15.4577V15.4594V15.4612V15.4629V15.4646V15.4664V15.4682V15.47V15.4718V15.4736V15.4754V15.4772V15.479V15.4809V15.4827V15.4846V15.4865V15.4884V15.4903V15.4922V15.4941V15.4961V15.498V15.5C11.519 15.7762 11.7428 16 12.019 16C12.2951 16 12.519 15.7762 12.519 15.5V15.498V15.4961V15.4941V15.4922V15.4903V15.4884V15.4865V15.4846V15.4827V15.4809V15.479V15.4772V15.4754V15.4736V15.4718V15.47V15.4682V15.4664V15.4646V15.4629V15.4612V15.4594V15.4577V15.456V15.4543V15.4526V15.4509V15.4493V15.4476V15.446V15.4443V15.4427V15.4411V15.4395V15.4379V15.4363V15.4347V15.4332V15.4316V15.4301V15.4285V15.427V15.4255V15.424V15.4225V15.421V15.4195V15.4181V15.4166V15.4152V15.4137V15.4123V15.4109V15.4094V15.408V15.4067V15.4053V15.4039V15.4025V15.4012V15.3998V15.3985V15.3972V15.3958V15.3945V15.3932V15.3919V15.3906V15.3893V15.3881V15.3868V15.3856V15.3843V15.3831V15.3819V15.3806V15.3794V15.3782V15.377V15.3758V15.3747V15.3735V15.3723V15.3712V15.37V15.3689V15.3677V15.3666V15.3655V15.3644V15.3633V15.3622V15.3611V15.36V15.3589V15.3579V15.3568V15.3558V15.3547V15.3537V15.3527V15.3516V15.3506V15.3496V15.3486V15.3476V15.3466V15.3456V15.3447V15.3437V15.3427V15.3418V15.3408V15.3399V15.339V15.338V15.3371V15.3362V15.3353V15.3344V15.3335V15.3326V15.3317V15.3308V15.33V15.3291V15.3282V15.3274V15.3265V15.3257V15.3248V15.324V15.3232V15.3224V15.3215V15.3207V15.3199V15.3191V15.3183V15.3175V15.3168V15.316V15.3152V15.3144V15.3137V15.3129V15.3122V15.3114V15.3107V15.3099V15.3092V15.3085V15.3078V15.307V15.3063V15.3056V15.3049V15.3042V15.3035V15.3028V15.3021V15.3015V15.3008V15.3001V15.2994V15.2988V15.2981V15.2974V15.2968V15.2961V15.2955V15.2948V15.2942V15.2936V15.2929V15.2923V15.2917V15.2911V15.2905V15.2898V15.2892V15.2886V15.288V15.2874V15.2868V15.2862V15.2856V15.2851V15.2845V15.2839V15.2833V15.2827V15.2822V15.2816V15.281V15.2805V15.2799V15.2793V15.2788V15.2782V15.2777V15.2771V15.2766V15.276V15.2755V15.275V15.2744V15.2739V15.2734V15.2728V15.2723V15.2718V15.2713V15.2707V15.2702V15.2697V15.2692V15.2687V15.2682V15.2676V15.2671V15.2666V15.2661V15.2656V15.2651V15.2646V15.2641V15.2636V15.2631V15.2626V15.2621V15.2616V15.2611V15.2607V15.2602V15.2597V15.2592V15.2587V15.2582V15.2577V15.2572V15.2567V15.2563V15.2558V15.2553V15.2548V15.2543V15.2538V15.2534V15.2529V15.2524V15.2519V15.2514V15.251V15.2505V15.25V15.2495V15.249V15.2486V15.2481V15.2476V15.2471V15.2466V15.2462V15.2457V15.2452V15.2447V15.2442V15.2437V15.2433V15.2428V15.2423V15.2418V15.2413V15.2408V15.2403V15.2398V15.2393V15.2389V15.2384V15.2379V15.2374V15.2369V15.2364V15.2359V15.2354V15.2349V15.2344V15.2339V15.2334V15.2329V15.2324V15.2318V15.2313V15.2308V15.2303V15.2298V15.2293V15.2287V15.2282V15.2277V15.2272V15.2266V15.2261V15.2256V15.225V15.2245V15.224V15.2234V15.2229V15.2223V15.2218V15.2212V15.2207V15.2201V15.2195V15.219V15.2184V15.2178V15.2173V15.2167V15.2161V15.2155V15.2149V15.2144V15.2138V15.2132V15.2126V15.212V15.2114V15.2108V15.2102V15.2095V15.2089V15.2083V15.2077V15.2071V15.2064V15.2058V15.2052V15.2045V15.2039V15.2032V15.2026V15.2019V15.2012V15.2006V15.1999V15.1992V15.1985V15.1979V15.1972V15.1965V15.1958V15.1951V15.1944V15.1937V15.193V15.1922V15.1915V15.1908V15.1901V15.1893V15.1886V15.1878V15.1871V15.1863V15.1856V15.1848V15.184V15.1832V15.1825V15.1817V15.1809V15.1801V15.1793V15.1785V15.1776V15.1768V15.176V15.1752V15.1743V15.1735V15.1726V15.1718V15.1709V15.17V15.1692V15.1683V15.1674V15.1665V15.1656V15.1647V15.1638V15.1629V15.162V15.161V15.1601V15.1592V15.1582V15.1573V15.1563V15.1553V15.1544V15.1534V15.1524V15.1514V15.1504V15.1494V15.1484V15.1473V15.1463V15.1453V15.1442V15.1432V15.1421V15.1411V15.14V15.1389V15.1378V15.1367V15.1356V15.1345V15.1334V15.1323V15.1311V15.13V15.1288V15.1277V15.1265V15.1253V15.1242V15.123V15.1218V15.1206V15.1194V15.1181V15.1169V15.1157V15.1144V15.1132V15.1119V15.1107V15.1094V15.1081V15.1068V15.1055V15.1042V15.1028V15.1015V15.1002V15.0988V15.0975V15.0961V15.0947V15.0933V15.092V15.0906V15.0891V15.0877V15.0863V15.0848V15.0834V15.0819V15.0805V15.079V15.0775V15.076V15.0745V15.073V15.0715V15.0699V15.0684V15.0668V15.0653V15.0637V15.0621V15.0605V15.0589V15.0573V15.0557V15.054V15.0524V15.0507V15.0491V15.0474V15.0457V15.044V15.0423V15.0406V15.0388V15.0371V15.0354V15.0336V15.0318V15.03V15.0282V15.0264V15.0246V15.0228V15.021V15.0191V15.0173V15.0154V15.0135V15.0116V15.0097V15.0078V15.0059V15.0039V15.002V15Z" fill="#F6175A"/>
</svg>
