<svg width="19" height="19" viewBox="0 0 19 19" fill="none" xmlns="http://www.w3.org/2000/svg">
<path d="M16.5041 9.50098C16.5041 9.77712 16.2803 10.001 16.0041 10.001H10.0041V16.0068C10.0041 16.283 9.78027 16.5068 9.50413 16.5068C9.22798 16.5068 9.00413 16.283 9.00413 16.0068V10.001H3.00413C2.72799 10.001 2.50413 9.77712 2.50413 9.50098C2.50413 9.22483 2.72799 9.00098 3.00413 9.00098H9.00413V2.99487C9.00413 2.71873 9.22798 2.49487 9.50413 2.49487C9.78027 2.49487 10.0041 2.71873 10.0041 2.99487V9.00098H16.0041C16.2803 9.00098 16.5041 9.22483 16.5041 9.50098Z" fill="#F6175A"/>
</svg>
