<svg width="16" height="16" viewBox="0 0 16 16" fill="none" xmlns="http://www.w3.org/2000/svg">
<path fill-rule="evenodd" clip-rule="evenodd" d="M12.0062 13.3263L12.0062 1.50208C12.0062 1.22594 12.23 1.00208 12.5062 1.00208C12.7823 1.00208 13.0062 1.22594 13.0062 1.50208L13.0062 13.27L15.0991 11.2108C15.2959 11.0171 15.6125 11.0197 15.8061 11.2165C15.9998 11.4133 15.9973 11.7299 15.8004 11.9236L12.8283 14.848C12.6337 15.0394 12.3215 15.0394 12.1269 14.848L9.15478 11.9236C8.95794 11.7299 8.95538 11.4133 9.14905 11.2165C9.34272 11.0197 9.6593 11.0171 9.85613 11.2108L12.0062 13.3263ZM3.82502 1.16166C3.63043 0.970197 3.31825 0.970197 3.12366 1.16166L0.151519 4.08605C-0.0453183 4.27972 -0.047882 4.59629 0.145792 4.79313C0.339467 4.98997 0.656039 4.99253 0.852876 4.79886L3.00293 2.68335L3.00293 14.5075C3.00293 14.7837 3.22679 15.0075 3.50293 15.0075C3.77907 15.0075 4.00293 14.7837 4.00293 14.5075L4.00293 2.73961L6.09581 4.79886C6.29264 4.99253 6.60921 4.98997 6.80289 4.79313C6.99656 4.59629 6.994 4.27972 6.79716 4.08605L3.82502 1.16166Z" fill="white"/>
</svg>
