<svg width="60" height="60" viewBox="0 0 60 60" fill="none" xmlns="http://www.w3.org/2000/svg">
<path d="M59.475 30C59.475 46.2786 46.2786 59.475 30 59.475C13.7214 59.475 0.525024 46.2786 0.525024 30C0.525024 13.7214 13.7214 0.524998 30 0.524998C46.2786 0.524998 59.475 13.7214 59.475 30Z" stroke="#E6E6E6"/>
<path fill-rule="evenodd" clip-rule="evenodd" d="M45.209 43.026H14.791C13.263 43.026 12.025 41.801 12.025 40.291V19.777C12.025 18.266 13.263 17.041 14.791 17.041H45.209C46.737 17.041 47.975 18.266 47.975 19.777V40.291C47.975 41.801 46.737 43.026 45.209 43.026ZM14.791 42.022H45.209C45.695 42.022 46.135 41.828 46.452 41.515C46.766 41.205 46.961 40.771 46.961 40.291V19.777C46.961 19.296 46.766 18.863 46.452 18.552C46.135 18.239 45.695 18.045 45.209 18.045H14.791C14.305 18.045 13.865 18.239 13.548 18.552C13.234 18.863 13.039 19.296 13.039 19.777V40.291C13.039 40.771 13.234 41.205 13.548 41.515C13.865 41.828 14.304 42.022 14.791 42.022Z" fill="#F6175A"/>
<path d="M22.292 26.025H18.896V24.068H23.263V25.047C23.263 25.587 22.828 26.025 22.292 26.025ZM17.926 26.025H17.44C16.904 26.025 16.47 25.587 16.47 25.047V22.112C16.47 21.572 16.904 21.134 17.44 21.134H17.926V26.025ZM18.896 21.134H22.292C22.828 21.134 23.263 21.572 23.263 22.112V23.09H18.896V21.134Z" fill="#F6175A"/>
<path d="M18.763 34.026H17.12C16.516 34.026 16.025 33.578 16.025 33.026C16.025 32.473 16.516 32.025 17.12 32.025H18.763C19.368 32.025 19.858 32.473 19.858 33.026C19.858 33.578 19.368 34.026 18.763 34.026Z" fill="#F6175A"/>
<path d="M27.062 34.075H25.497C24.921 34.075 24.453 33.648 24.453 33.122C24.453 32.595 24.921 32.169 25.497 32.169H27.062C27.638 32.169 28.105 32.595 28.105 33.122C28.105 33.648 27.638 34.075 27.062 34.075Z" fill="#F6175A"/>
<path d="M34.847 34.026H33.204C32.6 34.026 32.109 33.578 32.109 33.026C32.109 32.473 32.6 32.025 33.204 32.025H34.847C35.452 32.025 35.942 32.473 35.942 33.026C35.942 33.578 35.452 34.026 34.847 34.026Z" fill="#F6175A"/>
<path d="M42.8151 33.947H41.2371C40.6561 33.947 40.1851 33.517 40.1851 32.986C40.1851 32.456 40.6561 32.025 41.2371 32.025H42.8151C43.3961 32.025 43.8671 32.456 43.8671 32.986C43.8671 33.517 43.3961 33.947 42.8151 33.947Z" fill="#F6175A"/>
<path d="M28.038 39.026H17.079C16.742 39.026 16.47 38.802 16.47 38.526C16.47 38.249 16.742 38.026 17.079 38.026H28.038C28.375 38.026 28.647 38.249 28.647 38.526C28.647 38.802 28.375 39.026 28.038 39.026Z" fill="#F6175A"/>
<path d="M35.412 39.026H30.677C30.302 39.026 30 38.802 30 38.526C30 38.249 30.302 38.026 30.677 38.026H35.412C35.786 38.026 36.089 38.249 36.089 38.526C36.089 38.802 35.786 39.026 35.412 39.026Z" fill="#F6175A"/>
</svg>
