<svg width="60" height="60" viewBox="0 0 60 60" fill="none" xmlns="http://www.w3.org/2000/svg">
<path d="M59.475 30C59.475 46.2786 46.2786 59.475 30 59.475C13.7214 59.475 0.525024 46.2786 0.525024 30C0.525024 13.7214 13.7214 0.525002 30 0.525002C46.2786 0.525002 59.475 13.7214 59.475 30Z" stroke="#E6E6E6"/>
<path fill-rule="evenodd" clip-rule="evenodd" d="M37.97 13.003H22.081C21.535 13.003 21.039 13.207 20.681 13.537C20.322 13.866 20.1 14.325 20.1 14.834V45.166C20.1 45.672 20.324 46.132 20.685 46.463C21.041 46.793 21.536 46.997 22.081 46.997H30.515C30.951 47.368 31.424 47.696 31.929 47.975H22.081C20.396 47.975 19.026 46.714 19.026 45.166V14.834C19.026 13.285 20.396 12.025 22.081 12.025H37.97C39.655 12.025 41.026 13.285 41.026 14.834V33.652C40.686 33.405 40.327 33.181 39.951 32.985V14.834C39.951 14.325 39.729 13.866 39.37 13.537C39.012 13.207 38.517 13.003 37.97 13.003ZM20.1 17.026H39.951V18.026H20.1V17.026ZM20.1 41.026H27.541C27.561 41.365 27.6 41.699 27.658 42.026H20.1V41.026ZM27.526 45.026C27.25 45.026 27.025 44.802 27.025 44.526C27.025 44.25 27.25 44.026 27.526 44.026H28.278C28.435 44.373 28.614 44.706 28.814 45.026H27.526Z" fill="#F6175A"/>
<path d="M36.026 33.513C37.981 33.513 39.749 34.304 41.026 35.582C42.293 36.849 43.078 38.597 43.078 40.526C43.078 42.454 42.293 44.203 41.026 45.47C39.749 46.747 37.981 47.538 36.026 47.538C34.071 47.538 32.303 46.747 31.026 45.47C29.758 44.203 28.974 42.454 28.974 40.526C28.974 38.598 29.758 36.849 31.026 35.582C32.303 34.304 34.071 33.513 36.026 33.513ZM40.375 36.121C39.26 35.006 37.722 34.316 36.026 34.316C34.33 34.316 32.791 35.006 31.677 36.121C30.551 37.245 29.855 38.803 29.855 40.526C29.855 42.248 30.552 43.806 31.677 44.931C32.791 46.046 34.33 46.736 36.026 46.736C37.722 46.736 39.26 46.046 40.375 44.931C41.5 43.806 42.196 42.248 42.196 40.526C42.196 38.803 41.5 37.245 40.375 36.121Z" fill="#F6175A"/>
<path d="M34.172 39.173L36.526 36.819V44.026H35.526V39.233L34.879 39.879L34.172 39.173Z" fill="#F6175A"/>
</svg>
